<svg width="40" height="40" viewBox="0 0 40 40" fill="none" xmlns="http://www.w3.org/2000/svg">
<rect width="40" height="40" rx="8" fill="url(#paint0_linear_1_282)"/>
<path d="M20.5541 19.7742C20.7284 17.4844 21.7239 16.3644 23.6652 16.3644C25.059 16.3644 26.0048 16.9618 26.0048 17.8578H28.6181C28.6181 15.5182 26.6519 14 23.6652 14C20.0315 14 17.9159 16.3644 17.9159 20.4711C17.9159 24.6276 19.9319 26.9422 23.7648 26.9422C27.0501 26.9422 29.1159 25.3493 29.1159 22.8356C29.1159 20.4213 27.0999 18.8533 24.0137 18.8533C22.595 18.8533 21.4252 19.2764 20.5541 19.7742ZM23.7897 24.5778C21.9977 24.5778 21.027 23.7813 20.6786 22.0889C21.4004 21.5911 22.3959 21.0933 23.5657 21.0933C25.4821 21.0933 26.5026 21.7156 26.5026 22.8356C26.5026 23.8809 25.4324 24.5778 23.7897 24.5778Z" fill="white"/>
<path d="M10 21.2178L12.245 26.6933H13.8876L16.1326 21.2178H14.9718L13.132 25.7077H13.0225L11.1827 21.2178H10Z" fill="white"/>
<defs>
<linearGradient id="paint0_linear_1_282" x1="0" y1="0" x2="40" y2="40" gradientUnits="userSpaceOnUse">
<stop stop-color="#25CD08"/>
<stop offset="1" stop-color="#09B32B"/>
</linearGradient>
</defs>
</svg>
